<svg xmlns="http://www.w3.org/2000/svg" xmlns:xlink="http://www.w3.org/1999/xlink" width="512" height="512" viewBox="0 0 512 512"><defs><clipPath id="b"><rect width="512" height="512"/></clipPath></defs><g id="a" clip-path="url(#b)"><rect width="512" height="512" fill="#212529"/><path d="M5.075,0h64.96V-5.075l-14.21-2.03V-89.117H80.591v-5.075H55.825v-3.045a101.386,101.386,0,0,1,1.421-18.27l.609-3.248h27.4V-144.13H62.93L34.307-123.221C23.954-115.71,15.225-105.56,15.225-95.41v1.218H5.075v5.075h10.15V-7.105L5.075-5.075Zm99-67.6H259.2v21.608H104.073ZM330.687,3.654c29.232-6.5,39.179-21.112,39.179-35.931,0-10.556-4.06-17.458-13.2-23.751L333.529-72.065c-10.759-7.511-13.4-10.759-13.4-16.037s4.06-8.526,9.135-8.526c4.669,0,7.511,1.218,11.368,5.075l18.473,27.608h5.075V-95.41c-12.383-5.075-18.676-6.09-35.728-6.09-27.608,5.075-40.194,19.285-40.194,34.51,0,12.383,6.5,20.1,15.225,26.187L327.033-24.36c8.729,6.09,12.18,8.729,12.18,14.007,0,4.466-4.872,8.729-11.774,8.729-7.105,0-10.759-2.639-17.661-9.135l-14.616-27h-5.075V-2.842C299.019,1.015,314.244,3.654,330.687,3.654Z" transform="translate(70 318)" fill="#fff"/></g></svg>